<svg width="165" height="45" fill="none" xmlns="http://www.w3.org/2000/svg"><rect x=".5" y=".5" width="164" height="43.502" rx="21.751" fill="#fff" stroke="#BBB"/><path d="M104.765 28.866h10.993V26.43h-7.246c1-3.998 7.121-4.872 7.121-9.307 0-2.374-1.624-4.123-5.059-4.123-2.124 0-3.998.625-5.247 1.25l.749 2.248c1.125-.562 2.436-1.062 4.061-1.062 1.249 0 2.436.562 2.436 1.999 0 3.248-7.184 3.498-7.808 11.43zm11.306-3.873h7.058v3.873h2.811v-3.873h2.374V22.62h-2.374V13h-2.061l-7.808 10.12v1.873zm3.185-2.249l3.998-5.372c0 .438-.125 1.812-.125 3.061v2.249h-1.874c-.562 0-1.624.062-1.999.062z" fill="#005893"/><path d="M24.936 26.492v-4.934h1.187c1.061 0 1.936.125 2.56.5.625.374 1 .999 1 1.998 0 1.687-1 2.436-3.373 2.436h-1.374zm-2.873 2.374h4.184c4.685 0 6.372-2.061 6.372-4.935 0-1.936-.812-3.248-2.249-3.998-1.124-.624-2.56-.811-4.31-.811h-1.124v-3.748h6.309l.75-2.312H22v15.804h.063zm12.492 0h2.749l3.56-5.122c.687-.937 1.187-1.874 1.5-2.374h.062a27.467 27.467 0 00-.125 2.436v4.997h2.81V17.56h-2.748l-3.56 5.122c-.625.937-1.187 1.874-1.5 2.374h-.062c.063-.688.125-1.562.125-2.437v-4.997h-2.81v11.244zm15.366 0h2.874v-8.933h3.373l.75-2.373H46.485v2.373h3.435v8.933zm7.996 5.684h2.81v-5.684c.563.187 1.125.25 1.75.25 3.56 0 5.871-2.436 5.871-5.934 0-3.623-2.123-5.934-6.184-5.934-1.561 0-3.06.312-4.31.687V34.55h.063zm2.81-8.12v-6.621a4.44 4.44 0 011.312-.188c2.062 0 3.373 1.125 3.373 3.56 0 2.187-1.062 3.561-3.185 3.561-.562 0-1-.125-1.5-.312zm9.308 2.436h2.748l3.56-5.122c.688-.937 1.187-1.874 1.5-2.374h.062a27.506 27.506 0 00-.125 2.436v4.997h2.811V17.56h-2.748l-3.56 5.122c-.625.937-1.188 1.874-1.5 2.374h-.062c.062-.688.125-1.562.125-2.437v-4.997h-2.811v11.244zm12.805 0h2.873V24.18H87.4c.312 0 .624.312 1 1.062l1.436 3.623h3.06l-2.06-4.31c-.376-.75-.75-1.187-1.313-1.374v-.063c.938-.562 1.062-2.186 1.625-2.998.187-.25.437-.375.812-.375.187 0 .437 0 .624.125v-2.436c-.312-.125-.874-.187-1.187-.187-.999 0-1.624.374-2.06.999-.938 1.374-.938 3.748-2.312 3.748h-1.312V17.56H82.84v11.306zm16.428.25c1.561 0 2.998-.5 3.873-1.125l-.812-1.936c-.812.437-1.562.75-2.624.75-1.936 0-3.186-1.25-3.186-3.56 0-2.062 1.25-3.686 3.373-3.686 1.125 0 1.937.312 2.749.874v-2.436c-.625-.375-1.624-.75-3.06-.75-3.374 0-5.997 2.5-5.997 6.06 0 3.248 1.998 5.809 5.684 5.809z" fill="#0BBBEF"/><path d="M137.621 24.993a5.571 5.571 0 005.559-5.56 5.571 5.571 0 00-5.559-5.559 5.571 5.571 0 00-5.559 5.56c.062 3.06 2.498 5.56 5.559 5.56z" stroke="#005893" stroke-width="1.769"/><path d="M141.119 19.434h-3.061v-3.06h-.812v3.872h3.873v-.812z" fill="#005893"/></svg>