<svg width="256" height="35" fill="none" xmlns="http://www.w3.org/2000/svg"><path d="M135.983 34l.001.5-.001-.5zM255.466 4.735a.5.5 0 00-.285-.647l-4.196-1.627a.5.5 0 00-.361.932l3.729 1.446-1.446 3.73a.5.5 0 10.933.361l1.626-4.195zM.69 1.392c1.727 1.366 3.67 2.714 5.805 4.04l.527-.85C4.913 3.274 3.003 1.947 1.31.609l-.62.784zm18.323 10.606c4.038 1.822 8.43 3.58 13.11 5.252l.336-.941c-4.658-1.666-9.024-3.413-13.035-5.222l-.411.911zm26.526 9.59a292 292 0 0013.63 3.621l.233-.972a291.056 291.056 0 01-13.582-3.608l-.28.96zm27.407 6.62c4.558.89 9.198 1.7 13.89 2.421l.152-.989a345.249 345.249 0 01-13.85-2.414l-.192.982zm27.866 4.278c4.669.523 9.358.952 14.039 1.278l.07-.998a332.503 332.503 0 01-13.998-1.274l-.111.994zm28.125 1.937c2.36.055 4.71.08 7.047.077l-.002-1a279.75 279.75 0 01-7.021-.077l-.024 1zm7.047.077c2.04-.004 4.101-.052 6.178-.14l-.043-1c-2.064.089-4.111.136-6.137.14l.002 1zm18.505-1.097c4.067-.448 8.159-1.02 12.245-1.694l-.163-.986a230.6 230.6 0 01-12.192 1.686l.11.994zm24.387-3.977a332.84 332.84 0 0012.036-2.77l-.242-.971c-3.938.982-7.949 1.91-12 2.762l.206.979zm23.97-5.956c4.084-1.159 8.04-2.35 11.825-3.544l-.301-.954a427.55 427.55 0 01-11.797 3.536l.273.962zm23.558-7.417a475.958 475.958 0 0011.602-4.168l-.35-.937a475.8 475.8 0 01-11.578 4.16l.326.945zm23.136-8.666a298.564 298.564 0 005.286-2.212l.28-.122.071-.031.019-.008.004-.002h.002L255 4.553l-.202-.458h-.001l-.004.003-.018.007-.069.031c-.062.027-.155.068-.278.12-.245.107-.611.265-1.089.468-.957.407-2.367.999-4.176 1.736l.377.926z" fill="#BDBDBD"/></svg>