<svg width="344" height="40" fill="none" xmlns="http://www.w3.org/2000/svg"><path d="M177.77.54l.005-.5-.005.5zm166.121 36.238a.5.5 0 01-.246.663l-4.088 1.88a.5.5 0 11-.418-.908l3.634-1.671-1.672-3.634a.5.5 0 01.909-.418l1.881 4.088zM.746 33.568a88.478 88.478 0 015.727-3.077l.443.897a87.513 87.513 0 00-5.662 3.041l-.508-.861zm17.656-8.251c3.8-1.467 7.894-2.907 12.245-4.31l.307.953a228.834 228.834 0 00-12.192 4.29l-.36-.933zm24.672-8.018a385.778 385.778 0 0112.566-3.245l.234.973a384.901 384.901 0 00-12.533 3.236l-.267-.964zm25.231-6.097a495.197 495.197 0 0112.724-2.5l.18.983c-4.318.79-8.556 1.624-12.698 2.495l-.206-.978zm25.508-4.679c4.226-.667 8.509-1.29 12.834-1.868l.132.99a544.54 544.54 0 00-12.81 1.866l-.156-.988zm25.709-3.433c4.28-.469 8.587-.89 12.908-1.258l.085.996a539.68 539.68 0 00-12.884 1.256l-.109-.994zm25.844-2.2a491.31 491.31 0 0112.955-.61l.034 1c-4.302.144-8.616.349-12.929.608l-.06-.998zm25.923-.865c2.169-.011 4.331-.006 6.486.015l-.01 1a423.803 423.803 0 00-6.471-.015l-.005-1zm6.486.015c2.007.02 4.038.07 6.089.148l-.038 1a218.308 218.308 0 00-6.061-.148l.01-1zm18.245.903c3.995.339 8.041.764 12.117 1.265l-.122.993c-4.064-.5-8.098-.924-12.08-1.261l.085-.997zm24.186 2.947c4 .62 8.009 1.3 12.009 2.03l-.179.983a454.784 454.784 0 00-11.983-2.025l.153-.988zm23.964 4.358c4.001.826 7.974 1.692 11.9 2.587l-.222.975a595.355 595.355 0 00-11.88-2.583l.202-.98zm23.738 5.403a728.07 728.07 0 0111.793 3.024l-.257.966a723.89 723.89 0 00-11.776-3.02l.24-.97zm23.541 6.24a823.106 823.106 0 0111.69 3.39l-.285.958a828.884 828.884 0 00-11.676-3.386l.271-.963zm23.323 6.948a823.902 823.902 0 0111.61 3.736l-.314.95a824.48 824.48 0 00-11.595-3.732l.299-.954zm23.155 7.652a470.538 470.538 0 015.309 1.89l.279.102a9.554 9.554 0 00.089.033l.004.001h.002v.001l-.174.469-.173.469h-.002l-.004-.002-.017-.007-.07-.025-.277-.102-1.092-.395a458.04 458.04 0 00-4.204-1.49l.33-.944z" fill="#BDBDBD"/></svg>