<svg width="165" height="45" viewBox="0 0 165 45" fill="none" xmlns="http://www.w3.org/2000/svg">
<rect x="0.5" y="0.5" width="164" height="43.5021" rx="21.751" fill="white" stroke="#BBBBBB"/>
<path d="M104.765 28.8658H115.758V26.4297H108.512C109.512 22.4321 115.633 21.5576 115.633 17.1226C115.633 14.749 114.009 13 110.574 13C108.45 13 106.576 13.6246 105.327 14.2493L106.076 16.498C107.201 15.9358 108.512 15.4361 110.137 15.4361C111.386 15.4361 112.573 15.9983 112.573 17.4349C112.573 20.6831 105.389 20.9329 104.765 28.8658ZM116.071 24.9931H123.129V28.8658H125.94V24.9931H128.314V22.6194H125.94V13H123.879L116.071 23.1192V24.9931ZM119.256 22.7444L123.254 17.3725C123.254 17.8097 123.129 19.1839 123.129 20.4332V22.6819H121.255C120.693 22.6819 119.631 22.7444 119.256 22.7444Z" fill="#005893"/>
<path d="M24.9358 26.4922V21.5576H26.1226C27.1845 21.5576 28.059 21.6825 28.6836 22.0573C29.3083 22.4321 29.6831 23.0567 29.6831 24.0562C29.6831 25.7427 28.6836 26.4922 26.31 26.4922H24.9358ZM22.0625 28.8659H26.2475C30.9323 28.8659 32.6189 26.8046 32.6189 23.9312C32.6189 21.9948 31.8068 20.6831 30.3702 19.9335C29.2458 19.3089 27.8091 19.1215 26.0602 19.1215H24.9358V15.3737H31.2447L31.9942 13.0625H22V28.8659H22.0625ZM34.5552 28.8659H37.3037L40.8641 23.7438C41.5512 22.8069 42.0509 21.8699 42.3632 21.3702H42.4257C42.3632 22.0573 42.3008 22.9318 42.3008 23.8063V28.8034H45.1117V17.5599H42.3632L38.8028 22.6819C38.1782 23.6189 37.616 24.5559 37.3037 25.0556H37.2412C37.3037 24.3685 37.3661 23.494 37.3661 22.6195V17.6224H34.5552V28.8659ZM49.9214 28.8659H52.7947V19.9335H56.1678L56.9173 17.5599H46.4859V19.9335H49.9214V28.8659ZM57.9168 34.5501H60.7276V28.8659C61.2898 29.0533 61.852 29.1157 62.4766 29.1157C66.0371 29.1157 68.3482 26.6796 68.3482 23.1817C68.3482 19.5587 66.2245 17.2476 62.1643 17.2476C60.6027 17.2476 59.1036 17.5599 57.8543 17.9347V34.5501H57.9168ZM60.7276 26.4298V19.8086C61.1649 19.6837 61.5397 19.6212 62.0394 19.6212C64.1007 19.6212 65.4124 20.7456 65.4124 23.1817C65.4124 25.3679 64.3505 26.7421 62.2268 26.7421C61.6646 26.7421 61.2273 26.6172 60.7276 26.4298ZM70.0348 28.8659H72.7832L76.3436 23.7438C77.0307 22.8069 77.5304 21.8699 77.8428 21.3702H77.9052C77.8428 22.0573 77.7803 22.9318 77.7803 23.8063V28.8034H80.5912V17.5599H77.8428L74.2823 22.6819C73.6577 23.6189 73.0955 24.5559 72.7832 25.0556H72.7207C72.7832 24.3685 72.8456 23.494 72.8456 22.6195V17.6224H70.0348V28.8659ZM82.8399 28.8659H85.7132V24.1811H87.3997C87.712 24.1811 88.0244 24.4934 88.3992 25.243L89.8358 28.8659H92.8966L90.8352 24.5559C90.4605 23.8063 90.0857 23.369 89.5235 23.1817V23.1192C90.4605 22.557 90.5854 20.933 91.1476 20.1209C91.335 19.8711 91.5848 19.7461 91.9596 19.7461C92.147 19.7461 92.3968 19.7461 92.5842 19.8711V17.435C92.2719 17.31 91.7097 17.2476 91.3974 17.2476C90.398 17.2476 89.7734 17.6224 89.3361 18.247C88.3992 19.6212 88.3992 21.9948 87.0249 21.9948H85.7132V17.5599H82.8399V28.8659ZM99.2679 29.1157C100.829 29.1157 102.266 28.616 103.141 27.9914L102.329 26.055C101.517 26.4922 100.767 26.8046 99.7051 26.8046C97.7687 26.8046 96.5195 25.5553 96.5195 23.2441C96.5195 21.1828 97.7687 19.5587 99.8925 19.5587C101.017 19.5587 101.829 19.8711 102.641 20.4332V17.9972C102.016 17.6224 101.017 17.2476 99.5802 17.2476C96.2071 17.2476 93.5837 19.7461 93.5837 23.3066C93.5837 26.5547 95.5825 29.1157 99.2679 29.1157Z" fill="#0BBBEF"/>
<path d="M137.621 24.9931C140.682 24.9931 143.18 22.4945 143.18 19.4338C143.18 16.3731 140.682 13.8745 137.621 13.8745C134.56 13.8745 132.062 16.3731 132.062 19.4338C132.124 22.4945 134.56 24.9931 137.621 24.9931Z" stroke="#005893" stroke-width="1.7688"/>
<path d="M141.119 19.434H138.058V16.3733H137.246V20.2461H141.119V19.434Z" fill="#005893"/>
</svg>
