<svg width="256" height="35" viewBox="0 0 256 35" fill="none" xmlns="http://www.w3.org/2000/svg">
<path d="M135.983 33.9996L135.984 34.4996L135.983 33.9996ZM255.466 4.73452C255.566 4.47705 255.438 4.18741 255.181 4.08759L250.985 2.46099C250.728 2.36117 250.438 2.48898 250.338 2.74645C250.238 3.00392 250.366 3.29356 250.624 3.39337L254.353 4.83924L252.907 8.56878C252.807 8.82625 252.935 9.11589 253.193 9.21571C253.45 9.31552 253.74 9.18772 253.84 8.93025L255.466 4.73452ZM0.689928 1.39224C2.41724 2.75769 4.35907 4.1062 6.49468 5.43242L7.02223 4.5829C4.91333 3.27326 3.0032 1.94619 1.31007 0.607756L0.689928 1.39224ZM19.0128 11.9984C23.0514 13.8204 27.4421 15.5771 32.1222 17.2503L32.4588 16.3087C27.8006 14.6432 23.4351 12.8965 19.424 11.0869L19.0128 11.9984ZM45.5391 21.5884C49.9255 22.871 54.4813 24.0817 59.1684 25.2093L59.4023 24.237C54.7302 23.113 50.1899 21.9064 45.8198 20.6286L45.5391 21.5884ZM72.946 28.2076C77.5043 29.0987 82.1445 29.9088 86.8361 30.629L86.9878 29.6405C82.3097 28.9225 77.6828 28.1147 73.1379 27.2262L72.946 28.2076ZM100.812 32.4856C105.481 33.0094 110.17 33.4382 114.851 33.7635L114.921 32.7659C110.254 32.4416 105.579 32.0141 100.923 31.4919L100.812 32.4856ZM128.937 34.4226C131.297 34.4777 133.647 34.5037 135.984 34.4996L135.982 33.4996C133.654 33.5037 131.312 33.4778 128.961 33.4229L128.937 34.4226ZM135.984 34.4996C138.024 34.4959 140.085 34.4483 142.162 34.36L142.119 33.3609C140.055 33.4486 138.008 33.496 135.982 33.4996L135.984 34.4996ZM154.489 33.403C158.556 32.9549 162.648 32.3822 166.734 31.7093L166.571 30.7226C162.502 31.3929 158.427 31.963 154.379 32.409L154.489 33.403ZM178.876 29.4256C182.94 28.5713 186.963 27.6397 190.912 26.6551L190.67 25.6848C186.732 26.6666 182.721 27.5955 178.67 28.447L178.876 29.4256ZM202.846 23.4702C206.93 22.3112 210.886 21.1194 214.671 19.9262L214.37 18.9724C210.593 20.163 206.647 21.352 202.573 22.5082L202.846 23.4702ZM226.404 16.0534C230.646 14.5909 234.542 13.1804 238.006 11.8846L237.656 10.948C234.199 12.241 230.311 13.6486 226.078 15.108L226.404 16.0534ZM249.54 7.3867C251.354 6.64763 252.769 6.05418 253.73 5.6453C254.211 5.44086 254.578 5.28255 254.826 5.17525C254.95 5.1216 255.043 5.0807 255.106 5.05316C255.138 5.03939 255.162 5.02896 255.177 5.02195C255.185 5.01844 255.191 5.01579 255.196 5.014C255.198 5.0131 255.199 5.01242 255.2 5.01196C255.201 5.01173 255.201 5.01155 255.201 5.01143C255.202 5.01137 255.202 5.01132 255.202 5.01129C255.202 5.01127 255.202 5.01126 255.202 5.01125C255.202 5.01124 255.202 5.01123 255 4.55378C254.798 4.09634 254.798 4.09634 254.798 4.09634C254.798 4.09634 254.798 4.09635 254.798 4.09636C254.798 4.09638 254.798 4.09641 254.798 4.09646C254.798 4.09656 254.797 4.09671 254.797 4.09691C254.796 4.09732 254.794 4.09794 254.793 4.09879C254.789 4.10047 254.783 4.10301 254.775 4.10641C254.76 4.11321 254.736 4.12343 254.706 4.13698C254.644 4.16408 254.551 4.20454 254.428 4.25775C254.183 4.36416 253.817 4.52155 253.339 4.72506C252.382 5.13209 250.972 5.72358 249.163 6.46061L249.54 7.3867Z" fill="#BDBDBD"/>
</svg>
