<svg width="344" height="40" viewBox="0 0 344 40" fill="none" xmlns="http://www.w3.org/2000/svg">
<path d="M177.77 0.540225L177.775 0.0402501L177.77 0.540225ZM343.891 36.778C344.006 37.0288 343.896 37.3258 343.645 37.4412L339.557 39.3218C339.306 39.4372 339.009 39.3274 338.894 39.0766C338.778 38.8257 338.888 38.5288 339.139 38.4133L342.773 36.7417L341.101 33.1077C340.986 32.8569 341.096 32.5599 341.347 32.4445C341.598 32.3291 341.894 32.4389 342.01 32.6898L343.891 36.778ZM0.746224 33.5677C2.49591 32.537 4.40894 31.5105 6.4735 30.4913L6.91616 31.388C4.87039 32.3979 2.97934 33.4129 1.25378 34.4293L0.746224 33.5677ZM18.402 25.3168C22.2014 23.85 26.2957 22.4101 30.6474 21.0078L30.9541 21.9596C26.6181 23.3568 22.5418 24.7905 18.7622 26.2497L18.402 25.3168ZM43.074 17.2994C47.1106 16.182 51.3068 15.0982 55.6404 14.0544L55.8745 15.0266C51.5513 16.0679 47.366 17.149 43.3408 18.2632L43.074 17.2994ZM68.305 11.2018C72.456 10.3286 76.703 9.49342 81.0291 8.70116L81.2092 9.6848C76.8915 10.4755 72.6531 11.309 68.5108 12.1804L68.305 11.2018ZM93.8128 6.5234C98.0388 5.85641 102.322 5.23207 106.647 4.65455L106.779 5.64575C102.462 6.22223 98.1869 6.84541 93.9687 7.51117L93.8128 6.5234ZM119.522 3.08991C123.802 2.62108 128.109 2.2005 132.43 1.83198L132.515 2.82836C128.202 3.19619 123.903 3.61599 119.631 4.08396L119.522 3.08991ZM145.366 0.889949C149.688 0.6298 154.01 0.425141 158.321 0.279761L158.355 1.27919C154.053 1.42427 149.739 1.62851 145.426 1.88814L145.366 0.889949ZM171.289 0.0248269C173.458 0.0135558 175.62 0.0185338 177.775 0.0402501L177.765 1.0402C175.616 1.01854 173.458 1.01357 171.294 1.02481L171.289 0.0248269ZM177.775 0.0402501C179.782 0.0604894 181.813 0.110324 183.864 0.188009L183.826 1.18729C181.784 1.10994 179.763 1.06034 177.765 1.0402L177.775 0.0402501ZM196.02 0.943277C200.015 1.28166 204.061 1.70717 208.137 2.2081L208.015 3.20064C203.951 2.7011 199.917 2.27694 195.935 1.93971L196.02 0.943277ZM220.206 3.88983C224.206 4.50954 228.215 5.18966 232.215 5.91951L232.036 6.90327C228.044 6.1749 224.043 5.49628 220.053 4.87804L220.206 3.88983ZM244.17 8.24757C248.171 9.07399 252.144 9.94022 256.07 10.8352L255.848 11.8102C251.928 10.9166 247.962 10.0519 243.968 9.2269L244.17 8.24757ZM267.908 13.6507C271.921 14.6435 275.859 15.6558 279.701 16.6748L279.444 17.6414C275.608 16.6237 271.675 15.6128 267.668 14.6215L267.908 13.6507ZM291.449 19.8904C295.509 21.0352 299.416 22.1715 303.139 23.281L302.854 24.2393C299.135 23.1312 295.232 21.9963 291.178 20.8529L291.449 19.8904ZM314.772 26.8389C319.038 28.1771 322.931 29.4358 326.382 30.5748L326.068 31.5244C322.622 30.3869 318.733 29.1297 314.473 27.7931L314.772 26.8389ZM337.927 34.4911C339.757 35.1307 341.178 35.6372 342.14 35.9839C342.622 36.1572 342.989 36.2906 343.236 36.3808C343.359 36.4258 343.452 36.4601 343.515 36.4831C343.546 36.4946 343.57 36.5033 343.586 36.5091C343.594 36.512 343.6 36.5142 343.604 36.5157C343.606 36.5164 343.607 36.517 343.608 36.5174C343.609 36.5176 343.609 36.5177 343.609 36.5178C343.609 36.5179 343.61 36.5179 343.61 36.5179C343.61 36.5179 343.61 36.518 343.61 36.518C343.61 36.518 343.61 36.518 343.436 36.9869C343.263 37.4559 343.263 37.4559 343.263 37.4559C343.263 37.4559 343.263 37.4559 343.263 37.4559C343.263 37.4558 343.263 37.4558 343.263 37.4558C343.262 37.4557 343.262 37.4556 343.261 37.4554C343.261 37.455 343.259 37.4545 343.257 37.4538C343.253 37.4524 343.248 37.4502 343.24 37.4474C343.224 37.4417 343.201 37.4331 343.17 37.4217C343.108 37.3989 343.015 37.3649 342.893 37.3201C342.647 37.2305 342.281 37.0976 341.801 36.9247C340.842 36.5791 339.425 36.0736 337.597 35.4352L337.927 34.4911Z" fill="#BDBDBD"/>
</svg>
